<svg width="24" height="24" viewBox="0 0 24 24" fill="none" xmlns="http://www.w3.org/2000/svg">
<g id="Google logo" clip-path="url(#clip0_1026_4135)">
<path id="Vector" d="M24 12.3924C24 11.4303 23.9166 10.7281 23.7361 10H12V14.3427H18.8888C18.75 15.422 18 17.0473 16.3333 18.1394L16.3099 18.2848L20.0207 20.976L20.2778 21C22.6388 18.9586 24 15.955 24 12.3924Z" fill="#4285F4"/>
<path id="Vector_2" d="M11.9114 24C15.2093 24 17.9778 22.8919 20 20.9806L16.1457 17.9334C15.1143 18.6675 13.73 19.18 11.9114 19.18C8.68147 19.18 5.94007 17.0055 4.96283 14L4.81959 14.0124L1.04931 16.9903L1 17.1301C3.00855 21.2021 7.13427 24 11.9114 24Z" fill="#34A853"/>
<path id="Vector_3" d="M5 14.9399C4.75516 14.1816 4.61346 13.3692 4.61346 12.5297C4.61346 11.6901 4.75516 10.8777 4.98712 10.1195L4.98063 9.95798L1.3557 7L1.2371 7.05928C0.45104 8.71124 0 10.5663 0 12.5297C0 14.4931 0.45104 16.348 1.2371 18L5 14.9399Z" fill="#FBBC05"/>
<path id="Vector_4" d="M11.8649 4.81992C14.1487 4.81992 15.6892 5.83099 16.5676 6.67593L20 3.241C17.892 1.23269 15.1486 0 11.8649 0C7.1081 0 2.99998 2.79777 1 6.86976L4.93242 10C5.91899 6.99446 8.6487 4.81992 11.8649 4.81992Z" fill="#EB4335"/>
</g>
<defs>
<clipPath id="clip0_1026_4135">
<rect width="24" height="24" fill="white"/>
</clipPath>
</defs>
</svg>
