<svg width="56" height="56" viewBox="0 0 56 56" fill="none" xmlns="http://www.w3.org/2000/svg">
<circle cx="28" cy="28" r="28" fill="white"/>
<circle cx="28" cy="28" r="27.75" stroke="#12121D" stroke-opacity="0.1" stroke-width="0.5"/>
<g clip-path="url(#clip0_1031_5726)">
<path d="M40 28.3924C40 27.4303 39.9166 26.7281 39.7361 26H28V30.3427H34.8888C34.75 31.422 34 33.0473 32.3333 34.1394L32.3099 34.2848L36.0207 36.976L36.2778 37C38.6388 34.9586 40 31.955 40 28.3924Z" fill="#4285F4"/>
<path d="M27.9114 40C31.2093 40 33.9778 38.8919 36 36.9806L32.1457 33.9334C31.1143 34.6675 29.73 35.18 27.9114 35.18C24.6815 35.18 21.9401 33.0055 20.9628 30L20.8196 30.0124L17.0493 32.9903L17 33.1301C19.0085 37.2021 23.1343 40 27.9114 40Z" fill="#34A853"/>
<path d="M21 30.9399C20.7552 30.1816 20.6135 29.3692 20.6135 28.5297C20.6135 27.6901 20.7552 26.8777 20.9871 26.1195L20.9806 25.958L17.3557 23L17.2371 23.0593C16.451 24.7112 16 26.5663 16 28.5297C16 30.4931 16.451 32.348 17.2371 34L21 30.9399Z" fill="#FBBC05"/>
<path d="M27.8649 20.8199C30.1487 20.8199 31.6892 21.831 32.5676 22.6759L36 19.241C33.892 17.2327 31.1486 16 27.8649 16C23.1081 16 19 18.7978 17 22.8698L20.9324 26C21.919 22.9945 24.6487 20.8199 27.8649 20.8199Z" fill="#EB4335"/>
</g>
<defs>
<clipPath id="clip0_1031_5726">
<rect width="24" height="24" fill="white" transform="translate(16 16)"/>
</clipPath>
</defs>
</svg>
