<svg width="121" height="23" viewBox="0 0 121 23" fill="none" xmlns="http://www.w3.org/2000/svg">
<path d="M11.6041 23C9.92046 23 8.36473 22.7254 6.93686 22.1763C5.53031 21.6061 4.3049 20.8141 3.26065 19.8003C2.21639 18.7654 1.40655 17.551 0.831145 16.157C0.277048 14.742 0 13.1896 0 11.5C0 9.85262 0.29836 8.33196 0.895079 6.93802C1.4918 5.54408 2.31229 4.34022 3.35655 3.32645C4.42212 2.29155 5.66883 1.48898 7.0967 0.918732C8.54587 0.348484 10.1229 0.0633601 11.8278 0.0633601C12.8934 0.0633601 13.9377 0.200642 14.9606 0.475206C15.9836 0.74977 16.9319 1.16162 17.8057 1.71074C18.7008 2.23875 19.468 2.87236 20.1073 3.61157L16.7827 7.38154C16.3352 6.9169 15.8557 6.51561 15.3442 6.17769C14.854 5.81864 14.3106 5.54408 13.7139 5.35399C13.1172 5.16391 12.4778 5.06887 11.7959 5.06887C10.9434 5.06887 10.1336 5.22727 9.36636 5.54408C8.62046 5.83976 7.95981 6.27273 7.3844 6.84298C6.83031 7.3921 6.39342 8.06795 6.07375 8.87052C5.75408 9.6731 5.59424 10.5707 5.59424 11.5634C5.59424 12.5349 5.75408 13.4219 6.07375 14.2245C6.39342 15.006 6.84096 15.6818 7.41637 16.2521C7.99178 16.8223 8.6844 17.2553 9.49423 17.551C10.3254 17.8466 11.2418 17.9945 12.2434 17.9945C12.9254 17.9945 13.5754 17.8995 14.1934 17.7094C14.8114 17.5193 15.3762 17.2658 15.8877 16.949C16.4204 16.6111 16.8893 16.2309 17.2942 15.8085L19.9155 19.927C19.3827 20.5184 18.6688 21.0464 17.7737 21.511C16.8999 21.9757 15.9196 22.3453 14.8327 22.6198C13.7672 22.8733 12.6909 23 11.6041 23Z" fill="black"/>
<path d="M29.6762 23C27.9713 23 26.4156 22.7149 25.009 22.1446C23.6025 21.5744 22.3771 20.7718 21.3328 19.7369C20.2885 18.702 19.4787 17.4876 18.9033 16.0937C18.3279 14.6997 18.0402 13.1685 18.0402 11.5C18.0402 9.8315 18.3279 8.30028 18.9033 6.90634C19.4787 5.5124 20.2885 4.29798 21.3328 3.26308C22.3771 2.22819 23.6025 1.42562 25.009 0.855372C26.4156 0.285124 27.9606 0 29.6442 0C31.3279 0 32.8729 0.285124 34.2795 0.855372C35.686 1.42562 36.9114 2.22819 37.9557 3.26308C39 4.29798 39.7991 5.5124 40.3532 6.90634C40.9286 8.30028 41.2163 9.8315 41.2163 11.5C41.2163 13.1474 40.9286 14.6786 40.3532 16.0937C39.7991 17.4876 39 18.702 37.9557 19.7369C36.9114 20.7718 35.686 21.5744 34.2795 22.1446C32.8729 22.7149 31.3385 23 29.6762 23ZM29.6442 17.9311C30.518 17.9311 31.3172 17.7727 32.0418 17.4559C32.7877 17.1391 33.427 16.6956 33.9598 16.1253C34.5139 15.534 34.9401 14.8476 35.2385 14.0661C35.5368 13.2847 35.686 12.4293 35.686 11.5C35.686 10.5707 35.5368 9.71534 35.2385 8.93388C34.9401 8.15243 34.5139 7.47658 33.9598 6.90634C33.427 6.31497 32.7877 5.86088 32.0418 5.54408C31.3172 5.22727 30.518 5.06887 29.6442 5.06887C28.7705 5.06887 27.9606 5.22727 27.2148 5.54408C26.4902 5.86088 25.8508 6.31497 25.2967 6.90634C24.7426 7.47658 24.3164 8.15243 24.018 8.93388C23.741 9.71534 23.6025 10.5707 23.6025 11.5C23.6025 12.4293 23.741 13.2952 24.018 14.0978C24.3164 14.8792 24.7426 15.5551 25.2967 16.1253C25.8508 16.6956 26.4902 17.1391 27.2148 17.4559C27.9606 17.7727 28.7705 17.9311 29.6442 17.9311Z" fill="black"/>
<path d="M41.265 22.6832V0.506886H50.6314C52.2724 0.506886 53.7748 0.78145 55.1388 1.33058C56.5027 1.85859 57.6748 2.61892 58.6551 3.61157C59.6568 4.60422 60.424 5.7764 60.9568 7.1281C61.4896 8.4798 61.756 9.96878 61.756 11.595C61.756 13.2213 61.4896 14.7208 60.9568 16.0937C60.424 17.4454 59.6568 18.6175 58.6551 19.6102C57.6748 20.5817 56.5027 21.3421 55.1388 21.8912C53.7748 22.4192 52.2724 22.6832 50.6314 22.6832H41.265ZM46.6995 19.0083L45.9642 17.9311H50.4716C51.3666 17.9311 52.1658 17.7833 52.8691 17.4876C53.5724 17.1708 54.1691 16.7378 54.6593 16.1887C55.1707 15.6396 55.565 14.9743 55.842 14.1928C56.1191 13.4114 56.2576 12.5455 56.2576 11.595C56.2576 10.6446 56.1191 9.7787 55.842 8.99724C55.565 8.21579 55.1707 7.55051 54.6593 7.00138C54.1691 6.45225 53.5724 6.02984 52.8691 5.73416C52.1658 5.41736 51.3666 5.25895 50.4716 5.25895H45.8683L46.6995 4.24518V19.0083Z" fill="black"/>
<path d="M66.4649 22.6832V11.6267L66.6886 13.1791L57.6419 0.506886H63.8116L70.7165 10.3278L67.9034 10.2328L74.137 0.506886H80.1148L71.4517 13.5275L71.9312 11.3733V22.6832H66.4649Z" fill="black"/>
<path d="M100.829 22.6832V0.506886H105.688L117.42 16.3471L116.365 16.1887C116.258 15.4917 116.173 14.8264 116.109 14.1928C116.045 13.5592 115.981 12.9362 115.917 12.3237C115.875 11.7112 115.832 11.0882 115.789 10.4545C115.768 9.82094 115.747 9.13453 115.725 8.39532C115.725 7.65611 115.725 6.85354 115.725 5.9876V0.506886H121V22.6832H116.077L103.834 6.33609L105.464 6.55785C105.571 7.57163 105.656 8.43756 105.72 9.15565C105.805 9.85262 105.869 10.4757 105.912 11.0248C105.975 11.5739 106.018 12.0702 106.039 12.5138C106.061 12.9573 106.071 13.4008 106.071 13.8444C106.093 14.2668 106.103 14.742 106.103 15.27V22.6832H100.829Z" fill="black"/>
<path fill-rule="evenodd" clip-rule="evenodd" d="M99.9947 12.6866C99.3994 18.4804 94.4926 23 88.5277 23C82.1611 23 77 17.8513 77 11.5C77 5.14873 82.1611 0 88.5277 0C94.5106 0 99.429 4.54699 100 10.366H93.5718C93.054 8.06316 90.9923 6.34254 88.5277 6.34254C85.6727 6.34254 83.3583 8.65139 83.3583 11.4995C83.3583 14.3476 85.6727 16.6564 88.5277 16.6564C90.9731 16.6564 93.022 14.9625 93.5594 12.6866H99.9947Z" fill="#4400EB"/>
</svg>
